:FULLY-SPECIFIED
:FORCE-ALL-JOINTS-BE-3DOF
:DEGREES
211
root 8.3886 16.5408 -7.78733 7.60799 0.678834 -4.40385
lfemur -44.2482 1.52391 -16.4313
ltibia 24.4435 0 0
lfoot -15.0841 10.8933 0
ltoes -15.7894 0 0
rfemur 4.55327 4.73129 29.958
rtibia 12.4132 0 0
rfoot -15.7274 4.90396 0
rtoes -9.44199 0 0
lowerback -6.20909 2.22919 2.09894
upperback -0.847934 2.73692 3.28405
thorax 2.52884 1.37523 2.43067
lowerneck -16.4597 -6.59696 -14.4434
upperneck 15.0038 -8.38149 15.0555
head 8.67453 -3.41615 6.47507
lclavicle 2.45185e-14 1.43484e-15 0
lhumerus -49.6321 -9.53369 95.3858
lradius 26.976 0 0
lwrist 7.98733 0 0
lhand -12.2302 -24.099 0
lfingers 7.12502 0 0
lthumb 13.836 5.43253 0
rclavicle 2.45185e-14 1.43484e-15 0
rhumerus -36.1705 10.9327 -81.4786
rradius 52.1341 0 0
rwrist -27.0125 0 0
rhand -33.0918 -28.6384 0
rfingers 7.12502 0 0
rthumb -6.30274 -58.5242 0
212
root 8.41546 16.5357 -7.6238 7.66751 0.457883 -4.38362
lfemur -44.5847 1.6653 -16.5947
ltibia 24.6599 0 0
lfoot -15.0185 10.7567 0
ltoes -15.4632 0 0
rfemur 5.02348 4.68667 29.7848
rtibia 12.6502 0 0
rfoot -15.1088 4.97883 0
rtoes -9.5116 0 0
lowerback -6.22746 2.26688 2.06438
upperback -0.898957 2.79073 3.24798
thorax 2.48243 1.40269 2.4156
lowerneck -16.4795 -6.58203 -14.4385
upperneck 15.0464 -8.3646 15.0568
head 8.68911 -3.40665 6.47841
lclavicle 2.37679e-14 1.08895e-15 0
lhumerus -49.6662 -9.37009 95.2219
lradius 26.8082 0 0
lwrist 7.64942 0 0
lhand -12.1797 -24.0985 0
lfingers 7.12502 0 0
lthumb 13.8848 5.43064 0
rclavicle 2.37679e-14 1.08895e-15 0
rhumerus -36.3399 10.8848 -81.6047
rradius 52 0 0
rwrist -26.9539 0 0
rhand -33.0374 -28.5216 0
rfingers 7.12502 0 0
rthumb -6.25026 -58.4086 0
213
root 8.44232 16.5307 -7.46027 7.73168 0.232286 -4.35866
lfemur -44.9031 1.82535 -16.7654
ltibia 24.9356 0 0
lfoot -14.925 10.6142 0
ltoes -15.1116 0 0
rfemur 5.49183 4.63497 29.5933
rtibia 12.9221 0 0
rfoot -14.4409 5.05637 0
rtoes -9.59113 0 0
lowerback -6.24515 2.30304 2.0252
upperback -0.954877 2.84297 3.20973
thorax 2.4305 1.42942 2.40068
lowerneck -16.5029 -6.56726 -14.4338
upperneck 15.0904 -8.34762 15.0583
head 8.70472 -3.39693 6.48187
lclavicle 2.2895e-14 7.45434e-16 0
lhumerus -49.7027 -9.19748 95.0497
lradius 26.628 0 0
lwrist 7.28272 0 0
lhand -12.1097 -24.0906 0
lfingers 7.12502 0 0
lthumb 13.9523 5.43443 0
rclavicle 2.2895e-14 7.45434e-16 0
rhumerus -36.5319 10.8321 -81.74
rradius 51.8349 0 0
rwrist -26.881 0 0
rhand -32.9732 -28.3948 0
rfingers 7.12502 0 0
rthumb -6.1883 -58.283 0
214
root 8.46918 16.5256 -7.29675 7.80009 0.0026516 -4.32911
lfemur -45.2034 2.00282 -16.9428
ltibia 25.2666 0 0
lfoot -14.8055 10.4661 0
ltoes -14.7366 0 0
rfemur 5.9569 4.57656 29.3846
rtibia 13.2274 0 0
rfoot -13.7275 5.13596 0
rtoes -9.68019 0 0
lowerback -6.26215 2.33758 1.9816
upperback -1.01531 2.8935 3.16946
thorax 2.37346 1.45535 2.38598
lowerneck -16.5297 -6.5526 -14.4294
upperneck 15.1357 -8.33051 15.0599
head 8.72134 -3.38697 6.48541
lclavicle 2.1908e-14 4.04852e-16 0
lhumerus -49.7407 -9.01681 94.8699
lradius 26.4361 0 0
lwrist 6.88934 0 0
lhand -12.0215 -24.0757 0
lfingers 7.12502 0 0
lthumb 14.0373 5.44357 0
rclavicle 2.1908e-14 4.04852e-16 0
rhumerus -36.7453 10.775 -81.8838
rradius 51.6406 0 0
rwrist -26.7946 0 0
rhand -32.8998 -28.2585 0
rfingers 7.12502 0 0
rthumb -6.11742 -58.1483 0
215
root 8.49604 16.5206 -7.13322 7.87233 -0.230411 -4.29513
lfemur -45.4852 2.19647 -17.1266
ltibia 25.6493 0 0
lfoot -14.6618 10.3128 0
ltoes -14.3398 0 0
rfemur 6.41729 4.51183 29.1598
rtibia 13.5642 0 0
rfoot -12.9726 5.21699 0
rtoes -9.77839 0 0
lowerback -6.27845 2.37044 1.93378
upperback -1.07989 2.9422 3.12732
thorax 2.31173 1.48039 2.37153
lowerneck -16.5598 -6.53802 -14.4251
upperneck 15.1825 -8.31321 15.0616
head 8.73895 -3.37677 6.48902
lclavicle 2.08155e-14 6.7754e-17 0
lhumerus -49.7794 -8.82903 94.6831
lradius 26.2337 0 0
lwrist 6.47138 0 0
lhand -11.9164 -24.0544 0
lfingers 7.12502 0 0
lthumb 14.1386 5.45774 0
rclavicle 2.08155e-14 6.7754e-17 0
rhumerus -36.9787 10.7137 -82.0354
rradius 51.4187 0 0
rwrist -26.6956 0 0
rhand -32.8178 -28.1134 0
rfingers 7.12502 0 0
rthumb -6.0382 -58.0048 0
216
root 8.5229 16.5155 -6.96969 7.94799 -0.466292 -4.25688
lfemur -45.7484 2.40508 -17.3163
ltibia 26.0796 0 0
lfoot -14.4956 10.1548 0
ltoes -13.923 0 0
rfemur 6.87158 4.44116 28.92
rtibia 13.9309 0 0
rfoot -12.1801 5.29884 0
rtoes -9.88532 0 0
lowerback -6.29404 2.40153 1.88193
upperback -1.14823 2.98893 3.08348
thorax 2.2457 1.50449 2.3574
lowerneck -16.5931 -6.52347 -14.4208
upperneck 15.2306 -8.29568 15.0631
head 8.75752 -3.36632 6.49264
lclavicle 1.96259e-14 -2.65306e-16 0
lhumerus -49.8178 -8.63509 94.4896
lradius 26.0216 0 0
lwrist 6.03095 0 0
lhand -11.7957 -24.027 0
lfingers 7.12502 0 0
lthumb 14.2549 5.47658 0
rclavicle 1.96259e-14 -2.65306e-16 0
rhumerus -37.2307 10.6485 -82.1941
rradius 51.1712 0 0
rwrist -26.5847 0 0
rhand -32.7277 -27.96 0
rfingers 7.12502 0 0
rthumb -5.9512 -57.8533 0
217
root 8.54976 16.5104 -6.80616 8.02667 -0.704383 -4.2145
lfemur -45.9927 2.6274 -17.5116
ltibia 26.5538 0 0
lfoot -14.3088 9.99253 0
ltoes -13.4879 0 0
rfemur 7.31834 4.36492 28.6661
rtibia 14.3258 0 0
rfoot -11.354 5.38089 0
rtoes -10.0006 0 0
lowerback -6.30892 2.43076 1.82623
upperback -1.21996 3.03356 3.0381
thorax 2.17578 1.52757 2.34363
lowerneck -16.6294 -6.5089 -14.4165
upperneck 15.2802 -8.27787 15.0645
head 8.77703 -3.35562 6.49625
lclavicle 1.83475e-14 -5.93775e-16 0
lhumerus -49.855 -8.43595 94.2902
lradius 25.8008 0 0
lwrist 5.57014 0 0
lhand -11.6607 -23.994 0
lfingers 7.12502 0 0
lthumb 14.385 5.49979 0
rclavicle 1.83475e-14 -5.93775e-16 0
rhumerus -37.4999 10.5798 -82.3592
rradius 50.8999 0 0
rwrist -26.4629 0 0
rhand -32.6301 -27.7991 0
rfingers 7.12502 0 0
rthumb -5.85699 -57.6943 0
218
root 8.57662 16.5054 -6.64264 8.10795 -0.944075 -4.16817
lfemur -46.2178 2.86221 -17.712
ltibia 27.068 0 0
lfoot -14.1032 9.82645 0
ltoes -13.0363 0 0
rfemur 7.75618 4.28349 28.3992
rtibia 14.7472 0 0
rfoot -10.4981 5.46254 0
rtoes -10.1238 0 0
lowerback -6.32307 2.45806 1.76689
upperback -1.29469 3.07597 2.99133
thorax 2.1024 1.54957 2.33027
lowerneck -16.6686 -6.49428 -14.4122
upperneck 15.3312 -8.25973 15.0656
head 8.79744 -3.34465 6.49982
lclavicle 1.69889e-14 -9.17098e-16 0
lhumerus -49.8899 -8.23256 94.0853
lradius 25.5724 0 0
lwrist 5.09105 0 0
lhand -11.5127 -23.9558 0
lfingers 7.12502 0 0
lthumb 14.5276 5.52701 0
rclavicle 1.69889e-14 -9.17098e-16 0
rhumerus -37.7849 10.5076 -82.5299
rradius 50.6064 0 0
rwrist -26.3309 0 0
rhand -32.5257 -27.6312 0
rfingers 7.12502 0 0
rthumb -5.75614 -57.5285 0
219
root 8.60349 16.5003 -6.47911 8.19143 -1.18476 -4.11803
lfemur -46.4236 3.10827 -17.9172
ltibia 27.6183 0 0
lfoot -13.8806 9.65697 0
ltoes -12.57 0 0
rfemur 8.18366 4.19726 28.1204
rtibia 15.1933 0 0
rfoot -9.61644 5.54316 0
rtoes -10.2546 0 0
lowerback -6.33649 2.48336 1.70409
upperback -1.37205 3.11602 2.94333
thorax 2.02594 1.5704 2.31738
lowerneck -16.7105 -6.47956 -14.4077
upperneck 15.3837 -8.24122 15.0664
head 8.81875 -3.3334 6.50331
lclavicle 1.55584e-14 -1.23472e-15 0
lhumerus -49.9218 -8.02586 93.8754
lradius 25.3372 0 0
lwrist 4.5958 0 0
lhand -11.3529 -23.9128 0
lfingers 7.12502 0 0
lthumb 14.6814 5.55791 0
rclavicle 1.55584e-14 -1.23472e-15 0
rhumerus -38.0845 10.4325 -82.7057
rradius 50.2927 0 0
rwrist -26.1898 0 0
rhand -32.4149 -27.4569 0
rfingers 7.12502 0 0
rthumb -5.64922 -57.3565 0
220
root 8.63035 16.4952 -6.31558 8.2767 -1.42583 -4.06424
lfemur -46.6098 3.36435 -18.1266
ltibia 28.201 0 0
lfoot -13.6428 9.48454 0
ltoes -12.0907 0 0
rfemur 8.59937 4.1066 27.8307
rtibia 15.6625 0 0
rfoot -8.71294 5.62213 0
rtoes -10.3925 0 0
lowerback -6.34918 2.50657 1.63803
upperback -1.45166 3.15359 2.89426
thorax 1.94682 1.59 2.305
lowerneck -16.7551 -6.46469 -14.403
upperneck 15.4376 -8.22229 15.0667
head 8.84091 -3.32187 6.50669
lclavicle 1.40645e-14 -1.54609e-15 0
lhumerus -49.9496 -7.81682 93.6613
lradius 25.0963 0 0
lwrist 4.08648 0 0
lhand -11.1827 -23.8655 0
lfingers 7.12502 0 0
lthumb 14.8453 5.59217 0
rclavicle 1.40645e-14 -1.54609e-15 0
rhumerus -38.3972 10.3546 -82.8858
rradius 49.9604 0 0
rwrist -26.0402 0 0
rhand -32.2985 -27.2769 0
rfingers 7.12502 0 0
rthumb -5.5368 -57.1789 0
221
root 8.65721 16.4902 -6.15206 8.36335 -1.66667 -4.00695
lfemur -46.7761 3.62921 -18.34
ltibia 28.8121 0 0
lfoot -13.3917 9.3096 0
ltoes -11.6002 0 0
rfemur 9.0019 4.01189 27.5312
rtibia 16.153 0 0
rfoot -7.79152 5.69885 0
rtoes -10.5372 0 0
lowerback -6.36112 2.52761 1.5689
upperback -1.53314 3.18854 2.84428
thorax 1.86545 1.60831 2.29319
lowerneck -16.8022 -6.44964 -14.398
upperneck 15.4929 -8.20288 15.0666
head 8.86391 -3.31005 6.50992
lclavicle 1.25156e-14 -1.85066e-15 0
lhumerus -49.9725 -7.60638 93.4433
lradius 24.8506 0 0
lwrist 3.56519 0 0
lhand -11.0033 -23.8144 0
lfingers 7.12502 0 0
lthumb 15.0181 5.62946 0
rclavicle 1.25156e-14 -1.85066e-15 0
rhumerus -38.7217 10.2742 -83.0694
rradius 49.6115 0 0
rwrist -25.883 0 0
rhand -32.177 -27.0919 0
rfingers 7.12502 0 0
rthumb -5.41944 -56.9962 0
222
root 8.68407 16.4851 -5.98853 8.45097 -1.90668 -3.94632
lfemur -46.9224 3.90162 -18.5568
ltibia 29.4479 0 0
lfoot -13.1289 9.13259 0
ltoes -11.1002 0 0
rfemur 9.38984 3.91351 27.223
rtibia 16.6632 0 0
rfoot -6.85612 5.77269 0
rtoes -10.6883 0 0
lowerback -6.3723 2.5464 1.49689
upperback -1.61611 3.22075 2.79355
thorax 1.78224 1.62524 2.282
lowerneck -16.8517 -6.43436 -14.3927
upperneck 15.5497 -8.18296 15.0658
head 8.88772 -3.29792 6.51297
lclavicle 1.09201e-14 -2.14786e-15 0
lhumerus -49.9894 -7.3955 93.222
lradius 24.6011 0 0
lwrist 3.03403 0 0
lhand -10.8161 -23.7599 0
lfingers 7.12502 0 0
lthumb 15.1983 5.66943 0
rclavicle 1.09201e-14 -2.14786e-15 0
rhumerus -39.0566 10.1916 -83.2559
rradius 49.2477 0 0
rwrist -25.7192 0 0
rhand -32.0509 -26.9023 0
rfingers 7.12502 0 0
rthumb -5.29771 -56.8092 0
